<svg xmlns="http://www.w3.org/2000/svg" fill="none" viewBox="0 0 2237 500"><g filter="url(#filter0_ii)"><path fill="url(#paint0_linear)" d="M0 50C0 22.386 22.386 0 50 0h400c27.614 0 50 22.386 50 50v400c0 27.614-22.386 50-50 50H50c-27.614 0-50-22.386-50-50V50z"/></g><g filter="url(#filter1_ii)"><path fill="url(#paint1_linear)" d="M815.691 158.7l-89.6 244.3h-59.5l-89.6-244.3h52.5l67.2 194.25 66.85-194.25h52.15z"/><path fill="url(#paint2_linear)" d="M894.069 198.25v61.25h82.25v38.85h-82.25v64.75h92.75V403h-141.75V158.35h141.75v39.9h-92.75z"/><path fill="url(#paint3_linear)" d="M1019.45 280.5c0-24.034 5.36-45.5 16.1-64.4 10.96-19.134 25.78-33.95 44.45-44.45 18.9-10.734 40.01-16.1 63.35-16.1 27.3 0 51.21 7 71.75 21 20.53 14 34.88 33.366 43.05 58.1h-56.35c-5.6-11.667-13.54-20.417-23.8-26.25-10.04-5.834-21.7-8.75-35-8.75-14.24 0-26.95 3.383-38.15 10.15-10.97 6.533-19.6 15.866-25.9 28-6.07 12.133-9.1 26.366-9.1 42.7 0 16.1 3.03 30.333 9.1 42.7 6.3 12.133 14.93 21.583 25.9 28.35 11.2 6.533 23.91 9.8 38.15 9.8 13.3 0 24.96-2.917 35-8.75 10.26-6.067 18.2-14.934 23.8-26.6h56.35c-8.17 24.966-22.52 44.45-43.05 58.45-20.3 13.766-44.22 20.65-71.75 20.65-23.34 0-44.45-5.25-63.35-15.75-18.67-10.734-33.49-25.55-44.45-44.45-10.74-18.9-16.1-40.367-16.1-64.4z"/><path fill="url(#paint4_linear)" d="M1466.25 158.7v39.55h-65.1V403h-49V198.25h-65.1V158.7h179.2z"/><path fill="url(#paint5_linear)" d="M1628 403l-53.9-95.2H1551V403h-49V158.7h91.7c18.9 0 35 3.383 48.3 10.15 13.3 6.533 23.22 15.516 29.75 26.95 6.77 11.2 10.15 23.8 10.15 37.8 0 16.1-4.66 30.683-14 43.75-9.33 12.833-23.21 21.7-41.65 26.6L1684.7 403H1628zm-77-131.95h40.95c13.3 0 23.22-3.15 29.75-9.45 6.54-6.534 9.8-15.517 9.8-26.95 0-11.2-3.26-19.834-9.8-25.9-6.53-6.3-16.45-9.45-29.75-9.45H1551v71.75z"/><path fill="url(#paint6_linear)" d="M1774.52 158.7v151.2c0 16.566 4.32 29.283 12.95 38.15 8.63 8.633 20.77 12.95 36.4 12.95 15.87 0 28.12-4.317 36.75-12.95 8.63-8.867 12.95-21.584 12.95-38.15V158.7h49.35v150.85c0 20.766-4.55 38.383-13.65 52.85-8.87 14.233-20.88 24.966-36.05 32.2-14.93 7.233-31.62 10.85-50.05 10.85-18.2 0-34.77-3.617-49.7-10.85-14.7-7.234-26.37-17.967-35-32.2-8.63-14.467-12.95-32.084-12.95-52.85V158.7h49z"/><path fill="url(#paint7_linear)" d="M2236.61 158.7V403h-49V244.1L2122.16 403h-37.1l-65.8-158.9V403h-49V158.7h55.65l77.7 181.65 77.7-181.65h55.3z"/></g><path stroke="#fff" stroke-linecap="round" stroke-linejoin="round" stroke-width="45" d="M155.499 236.785l69.155 143.519L351.018 144.59"/><path stroke="#fff" stroke-linecap="round" stroke-linejoin="round" stroke-width="30" d="M382.178 196.464l-11.974-85.869-88.643 45.655"/><path stroke="#fff" stroke-linecap="round" stroke-linejoin="round" stroke-width="25" d="M147.37 231.39L100 313.758l3.246-5.644"/><defs><linearGradient id="paint0_linear" x1="249.886" x2="258.612" y1="-4.362" y2="495.562" gradientUnits="userSpaceOnUse"><stop stop-color="#00E27C"/><stop offset="1" stop-color="#00B262"/></linearGradient><linearGradient id="paint1_linear" x1="1409.36" x2="1385.67" y1="466.971" y2="-38.151" gradientUnits="userSpaceOnUse"><stop/><stop offset="1"/></linearGradient><linearGradient id="paint2_linear" x1="1409.36" x2="1385.67" y1="466.971" y2="-38.151" gradientUnits="userSpaceOnUse"><stop/><stop offset="1"/></linearGradient><linearGradient id="paint3_linear" x1="1409.36" x2="1385.67" y1="466.971" y2="-38.151" gradientUnits="userSpaceOnUse"><stop/><stop offset="1"/></linearGradient><linearGradient id="paint4_linear" x1="1409.36" x2="1385.67" y1="466.971" y2="-38.151" gradientUnits="userSpaceOnUse"><stop/><stop offset="1"/></linearGradient><linearGradient id="paint5_linear" x1="1409.36" x2="1385.67" y1="466.971" y2="-38.151" gradientUnits="userSpaceOnUse"><stop/><stop offset="1"/></linearGradient><linearGradient id="paint6_linear" x1="1409.36" x2="1385.67" y1="466.971" y2="-38.151" gradientUnits="userSpaceOnUse"><stop/><stop offset="1"/></linearGradient><linearGradient id="paint7_linear" x1="1409.36" x2="1385.67" y1="466.971" y2="-38.151" gradientUnits="userSpaceOnUse"><stop/><stop offset="1"/></linearGradient><filter id="filter0_ii" width="500.657" height="537.624" x="-.328" y="-18.812" color-interpolation-filters="sRGB" filterUnits="userSpaceOnUse"><feFlood flood-opacity="0" result="BackgroundImageFix"/><feBlend in="SourceGraphic" in2="BackgroundImageFix" result="shape"/><feColorMatrix in="SourceAlpha" result="hardAlpha" values="0 0 0 0 0 0 0 0 0 0 0 0 0 0 0 0 0 0 127 0"/><feOffset dx=".328" dy="18.812"/><feGaussianBlur stdDeviation="9.407"/><feComposite in2="hardAlpha" k2="-1" k3="1" operator="arithmetic"/><feColorMatrix values="0 0 0 0 0 0 0 0 0 0.911925 0 0 0 0 0.50222 0 0 0 1 0"/><feBlend in2="shape" result="effect1_innerShadow"/><feColorMatrix in="SourceAlpha" result="hardAlpha" values="0 0 0 0 0 0 0 0 0 0 0 0 0 0 0 0 0 0 127 0"/><feOffset dx="-.328" dy="-18.812"/><feGaussianBlur stdDeviation="9.407"/><feComposite in2="hardAlpha" k2="-1" k3="1" operator="arithmetic"/><feColorMatrix values="0 0 0 0 0 0 0 0 0 0.669469 0 0 0 0 0.368693 0 0 0 1 0"/><feBlend in2="effect1_innerShadow" result="effect2_innerShadow"/></filter><filter id="filter1_ii" width="1663.87" height="276.721" x="574.867" y="142.139" color-interpolation-filters="sRGB" filterUnits="userSpaceOnUse"><feFlood flood-opacity="0" result="BackgroundImageFix"/><feBlend in="SourceGraphic" in2="BackgroundImageFix" result="shape"/><feColorMatrix in="SourceAlpha" result="hardAlpha" values="0 0 0 0 0 0 0 0 0 0 0 0 0 0 0 0 0 0 127 0"/><feOffset dx="2.124" dy="13.411"/><feGaussianBlur stdDeviation="6.789"/><feComposite in2="hardAlpha" k2="-1" k3="1" operator="arithmetic"/><feColorMatrix values="0 0 0 0 0 0 0 0 0 0 0 0 0 0 0 0 0 0 0.5 0"/><feBlend in2="shape" result="effect1_innerShadow"/><feColorMatrix in="SourceAlpha" result="hardAlpha" values="0 0 0 0 0 0 0 0 0 0 0 0 0 0 0 0 0 0 127 0"/><feOffset dx="-2.124" dy="-13.411"/><feGaussianBlur stdDeviation="6.789"/><feComposite in2="hardAlpha" k2="-1" k3="1" operator="arithmetic"/><feColorMatrix values="0 0 0 0 0 0 0 0 0 0 0 0 0 0 0 0 0 0 0.5 0"/><feBlend in2="effect1_innerShadow" result="effect2_innerShadow"/></filter></defs></svg>